<?xml version="1.0"?><svg width="959.99988" height="475.99985" xmlns="http://www.w3.org/2000/svg" xmlns:xlink="http://www.w3.org/1999/xlink">
 <title>Grey Car - Top View</title>
 <defs>
  <linearGradient id="linearGradient3876">
   <stop stop-color="#000000" offset="0" id="stop3878"/>
   <stop stop-color="#b3b3b3" stop-opacity="0" offset="1" id="stop3880"/>
  </linearGradient>
  <linearGradient id="linearGradient3866">
   <stop stop-color="#000000" offset="0" id="stop3868"/>
   <stop stop-color="#cccccc" stop-opacity="0" offset="1" id="stop3870"/>
  </linearGradient>
  <linearGradient id="linearGradient3767">
   <stop stop-color="#333333" offset="0" id="stop3769"/>
   <stop stop-color="#808080" stop-opacity="0" offset="1" id="stop3771"/>
  </linearGradient>
  <linearGradient id="linearGradient3759">
   <stop stop-color="#1a1a1a" offset="0" id="stop3761"/>
   <stop stop-color="#f30000" stop-opacity="0" offset="1" id="stop3763"/>
  </linearGradient>
  <linearGradient gradientUnits="userSpaceOnUse" xlink:href="#linearGradient3759" id="linearGradient3765" y2="535.37097" x2="883.75842" y1="542.3974" x1="897.22186"/>
  <linearGradient gradientUnits="userSpaceOnUse" xlink:href="#linearGradient3767" id="linearGradient3773" y2="533.5" x2="874.86749" y1="537.5" x1="879.89642"/>
  <linearGradient gradientUnits="userSpaceOnUse" xlink:href="#linearGradient3759" id="linearGradient3785" y2="535.37097" x2="876.64569" y1="552.05042" x1="880.71014"/>
  <linearGradient gradientUnits="userSpaceOnUse" xlink:href="#linearGradient3767" id="linearGradient3789" y2="528.41949" x2="876.13763" y1="528.35504" x1="887.89642"/>
  <linearGradient gradientTransform="translate(-22,316.2677)" gradientUnits="userSpaceOnUse" xlink:href="#linearGradient3767" id="linearGradient3811" y2="528.41949" x2="876.13763" y1="528.35504" x1="887.89642"/>
  <linearGradient gradientTransform="translate(-24,320.2677)" gradientUnits="userSpaceOnUse" xlink:href="#linearGradient3767" id="linearGradient3813" y2="533.5" x2="874.86749" y1="537.5" x1="879.89642"/>
  <linearGradient gradientUnits="userSpaceOnUse" xlink:href="#linearGradient3767" id="linearGradient3843" y2="528.41949" x2="876.13763" y1="528.35504" x1="887.89642"/>
  <linearGradient gradientUnits="userSpaceOnUse" xlink:href="#linearGradient3767" id="linearGradient3845" y2="533.5" x2="874.86749" y1="537.5" x1="879.89642"/>
  <linearGradient gradientUnits="userSpaceOnUse" xlink:href="#linearGradient3759" id="linearGradient3847" y2="535.37097" x2="883.75842" y1="542.3974" x1="897.22186"/>
  <linearGradient gradientUnits="userSpaceOnUse" xlink:href="#linearGradient3759" id="linearGradient3849" y2="535.37097" x2="876.64569" y1="552.05042" x1="880.71014"/>
  <linearGradient gradientTransform="translate(-22,316.2677)" gradientUnits="userSpaceOnUse" xlink:href="#linearGradient3767" id="linearGradient3851" y2="528.41949" x2="876.13763" y1="528.35504" x1="887.89642"/>
  <linearGradient gradientTransform="translate(-24,320.2677)" gradientUnits="userSpaceOnUse" xlink:href="#linearGradient3767" id="linearGradient3853" y2="533.5" x2="874.86749" y1="537.5" x1="879.89642"/>
  <linearGradient gradientTransform="matrix(0.99043406,0.13798685,-0.13798685,0.99043406,130.62129,-29.069768)" gradientUnits="userSpaceOnUse" xlink:href="#linearGradient3866" id="linearGradient3872" y2="863.93677" x2="242.62505" y1="865.19409" x1="263.89166"/>
  <linearGradient gradientTransform="matrix(0.99043406,0.13798685,-0.13798685,0.99043406,120.60901,-30.101958)" gradientUnits="userSpaceOnUse" xlink:href="#linearGradient3876" id="linearGradient3874" y2="863.93677" x2="232.43333" y1="864.27179" x1="252.14371"/>
  <linearGradient gradientTransform="matrix(0.99043406,-0.13798685,-0.13798685,-0.99043406,120.60901,1463.2521)" gradientUnits="userSpaceOnUse" xlink:href="#linearGradient3876" id="linearGradient3886" y2="863.93677" x2="232.43333" y1="864.27179" x1="252.14371"/>
  <linearGradient gradientTransform="matrix(0.99043406,-0.13798685,-0.13798685,-0.99043406,130.62129,1462.2199)" gradientUnits="userSpaceOnUse" xlink:href="#linearGradient3866" id="linearGradient3888" y2="863.93677" x2="242.62505" y1="865.19409" x1="263.89166"/>
  <linearGradient gradientTransform="matrix(0.99043406,0.13798685,-0.13798685,0.99043406,146.04655,-33.884618)" gradientUnits="userSpaceOnUse" xlink:href="#linearGradient3759" id="linearGradient3960" y2="863.93677" x2="232.43333" y1="865.07489" x1="254.25746"/>
  <linearGradient gradientTransform="matrix(0.99043406,0.13798685,-0.13798685,0.99043406,156.30883,-32.602428)" gradientUnits="userSpaceOnUse" xlink:href="#linearGradient3759" id="linearGradient3962" y2="863.93677" x2="242.62505" y1="865.19409" x1="263.89166"/>
  <linearGradient gradientTransform="translate(21.43754,297.90666)" gradientUnits="userSpaceOnUse" xlink:href="#linearGradient3759" id="linearGradient3991" y2="535.37097" x2="876.64569" y1="552.05042" x1="880.71014"/>
  <linearGradient gradientTransform="translate(21.43754,297.90666)" gradientUnits="userSpaceOnUse" xlink:href="#linearGradient3759" id="linearGradient3994" y2="535.37097" x2="883.75842" y1="542.3974" x1="897.22186"/>
  <linearGradient gradientTransform="translate(21.43754,297.90666)" gradientUnits="userSpaceOnUse" xlink:href="#linearGradient3759" id="linearGradient3997" y2="533.5" x2="874.86749" y1="537.5" x1="879.89642"/>
  <linearGradient gradientTransform="translate(21.43754,297.90666)" gradientUnits="userSpaceOnUse" xlink:href="#linearGradient3759" id="linearGradient4000" y2="528.41949" x2="876.13763" y1="528.35504" x1="887.89642"/>
  <linearGradient gradientTransform="matrix(0.89332217,0,0,0.89332217,92.369757,365.14619)" gradientUnits="userSpaceOnUse" xlink:href="#linearGradient3759" id="linearGradient4008" y2="533.5" x2="874.86749" y1="537.5" x1="879.89642"/>
  <linearGradient gradientTransform="matrix(0.89332217,0,0,0.89332217,94.156401,361.5729)" gradientUnits="userSpaceOnUse" xlink:href="#linearGradient3759" id="linearGradient4011" y2="528.41949" x2="876.13763" y1="528.35504" x1="887.89642"/>
  <linearGradient gradientTransform="translate(21.43754,297.90666)" gradientUnits="userSpaceOnUse" xlink:href="#linearGradient3759" id="linearGradient4131" y2="501.07629" x2="835.98706" y1="552.05042" x1="880.71014"/>
  <linearGradient gradientTransform="translate(21.43754,297.90666)" gradientUnits="userSpaceOnUse" xlink:href="#linearGradient3759" id="linearGradient4133" y2="531.909" x2="815.8241" y1="537.5" x1="879.89642"/>
  <linearGradient gradientTransform="matrix(0.89332217,0,0,0.89332217,92.369757,365.14619)" gradientUnits="userSpaceOnUse" xlink:href="#linearGradient3759" id="linearGradient4135" y2="533.5" x2="812.13739" y1="537.5" x1="879.89642"/>
  <linearGradient gradientTransform="matrix(0.89332217,0,0,0.89332217,94.156401,361.5729)" gradientUnits="userSpaceOnUse" xlink:href="#linearGradient3759" id="linearGradient4137" y2="529.60681" x2="805.29413" y1="528.35504" x1="887.89642"/>
  <linearGradient gradientTransform="matrix(0.99043406,0.13798685,-0.13798685,0.99043406,146.04655,-33.884618)" gradientUnits="userSpaceOnUse" xlink:href="#linearGradient3759" id="linearGradient4139" y2="867.67596" x2="205.59436" y1="873.13715" x1="229.69746"/>
  <linearGradient gradientTransform="matrix(0.99043406,0.13798685,-0.13798685,0.99043406,156.30883,-32.602428)" gradientUnits="userSpaceOnUse" xlink:href="#linearGradient3759" id="linearGradient4141" y2="872.64813" x2="216.55965" y1="873.05804" x1="238.83344"/>
  <linearGradient xlink:href="#linearGradient3759" id="linearGradient4149" y2="0.325213" x2="0.500885" y1="0.499998" x1="1.116414"/>
  <linearGradient xlink:href="#linearGradient3759" id="linearGradient4153" y2="0.402935" x2="-0.255046" y1="0.494626" x1="1.545716"/>
  <linearGradient xlink:href="#linearGradient3759" id="linearGradient4155" y2="0.37682" x2="-0.237815" y1="0.50498" x1="1.464969"/>
  <linearGradient xlink:href="#linearGradient3759" id="linearGradient4185" y2="0.674782" x2="0.500885" y1="0.499997" x1="1.116414"/>
  <linearGradient xlink:href="#linearGradient3759" id="linearGradient4187" y2="0.703166" x2="1.365073" y1="0.704643" x1="1.677574"/>
  <linearGradient xlink:href="#linearGradient3759" id="linearGradient4189" y2="0.623177" x2="-0.237815" y1="0.495016" x1="1.464969"/>
  <linearGradient xlink:href="#linearGradient3759" id="linearGradient4191" y2="0.564393" x2="0.991189" y1="0.444778" x1="1.152176"/>
  <linearGradient xlink:href="#linearGradient3759" id="linearGradient4193" y2="1.148213" x2="0.41997" y1="0.280449" x1="0.954739"/>
  <linearGradient xlink:href="#linearGradient3759" id="linearGradient4195" y2="0.686302" x2="-0.436908" y1="0.714996" x1="1.758328"/>
  <linearGradient xlink:href="#linearGradient3759" id="linearGradient4197" y2="0.597059" x2="-0.255046" y1="0.505368" x1="1.545716"/>
  <linearGradient xlink:href="#linearGradient3759" id="linearGradient4199" y2="0.66898" x2="0.00008" y1="0.353155" x1="1.000091"/>
  <linearGradient xlink:href="#linearGradient3759" id="linearGradient4201" y2="0.486348" x2="0.000096" y1="0.349916" x1="1.000106"/>
  <linearGradient xlink:href="#linearGradient3759" id="linearGradient4203" y2="0.29683" x2="1.365073" y1="0.295353" x1="1.677574"/>
  <linearGradient xlink:href="#linearGradient3759" id="linearGradient4205" y2="0.435603" x2="0.991189" y1="0.555219" x1="1.152176"/>
  <linearGradient xlink:href="#linearGradient3759" id="linearGradient4207" y2="-0.148216" x2="0.41997" y1="0.719548" x1="0.954739"/>
  <linearGradient xlink:href="#linearGradient3759" id="linearGradient4209" y2="0.313694" x2="-0.436908" y1="0.285" x1="1.758328"/>
  <linearGradient xlink:href="#linearGradient3759" id="linearGradient4211" y2="0.331009" x2="0.00008" y1="0.646835" x1="1.000091"/>
  <linearGradient xlink:href="#linearGradient3759" id="linearGradient4213" y2="0.513642" x2="0.000096" y1="0.650074" x1="1.000106"/>
 </defs>
 <g>
  <title>Layer 1</title>
  <path fill="#000000" stroke="#191919" stroke-width="14" stroke-miterlimit="4" id="path3855" d="m557.587769,7.000092c-1.508606,0.009003 -4.721069,0.304901 -6.468689,0.9375l-3.499939,1.5l8.656128,35.937531l-124.811157,0.28125c-2.43631,0.004944 -4.887634,-0.014038 -7.343628,-0.03125c-4.912048,-0.034302 -9.86496,-0.104553 -14.843597,-0.21875c-7.292633,-0.167236 -14.668854,-0.412842 -22.062286,-0.71875c-0.395874,-0.016357 -0.791321,-0.045654 -1.187439,-0.0625c-14.932434,-0.630127 -30.007233,-1.491699 -45.030762,-2.4375c-20.326233,-1.282715 -40.520081,-2.707336 -60.12439,-3.875c-14.528015,-0.865295 -28.732101,-1.579529 -42.374527,-2c-9.369202,-0.288696 -18.463837,-0.456543 -27.249725,-0.40625c-4.315796,0.024719 -8.567825,0.093323 -12.718613,0.21875c-4.150757,0.125488 -8.380127,0.355347 -12.656097,0.65625c-2.138,0.150513 -4.277756,0.310242 -6.437439,0.5c-6.468903,0.56842 -13.044983,1.321411 -19.593536,2.1875c-0.010101,0.001038 -0.021103,-0.000977 -0.031204,0c-4.372513,0.578613 -8.718475,1.225525 -13.062363,1.90625c-4.343872,0.680725 -8.673386,1.397827 -12.937347,2.15625c-4.253723,0.756653 -8.470413,1.565369 -12.593613,2.375c-0.01001,0.002014 -0.02121,-0.001953 -0.031204,0c-2.066376,0.405884 -4.069733,0.804199 -6.093689,1.21875c-6.061401,1.241638 -11.933716,2.516052 -17.499817,3.78125c-0.010086,0.002014 -0.021088,-0.001953 -0.031189,0c-3.716461,0.84491 -7.287247,1.675171 -10.718628,2.5c-6.863831,1.648438 -13.115326,3.234619 -18.531044,4.65625c-8.123604,2.132507 -14.382431,3.927246 -18.093559,5c-2.473633,0.71582 -3.812462,1.125 -3.812462,1.125l-13.687347,3.75c-0.902405,0.248779 -1.778122,0.692932 -2.624977,1.3125c-0.28772,0.21051 -0.56234,0.435974 -0.84375,0.6875c-1.099579,0.979614 -2.150993,2.270691 -3.156204,3.84375c-0.004601,0.007019 0.004601,0.024353 0,0.03125c-0.500374,0.784729 -1.022461,1.640442 -1.499985,2.5625c-0.004196,0.007996 0.004204,0.023193 0,0.031189c-0.477577,0.923706 -0.951149,1.914185 -1.406235,2.96875c-0.0037,0.008972 0.0037,0.022156 0,0.031189c-3.66703,8.50946 -6.62001,21.131348 -8.937401,36.21875c-0.001503,0.01001 0.001495,0.021179 0,0.031189c-0.03595,0.234192 -0.058105,0.483398 -0.09375,0.71875c-0.504623,3.331482 -0.992043,6.798218 -1.437492,10.34375c-0.030479,0.242676 -0.063553,0.47522 -0.09375,0.71875c-0.501556,4.043152 -0.946716,8.202454 -1.374977,12.46875c-0.000999,0.01001 0.000999,0.021118 0,0.031189c-0.213551,2.128418 -0.429123,4.2948 -0.625004,6.46875c-0.000919,0.01001 0.000931,0.020935 0,0.031189c-0.195797,2.174377 -0.383968,4.349243 -0.562489,6.5625c-0.000832,0.01001 0.000832,0.020935 0,0.03125c-0.35775,4.437622 -0.678169,8.945801 -0.968739,13.5c-0.000652,0.010071 0.00066,0.020874 0,0.031189c-0.872593,13.684082 -1.459583,27.788696 -1.781231,41.5625c-0.00024,0.010376 0.00024,0.020691 0,0.031189c-0.214432,9.189392 -0.312599,18.213318 -0.312599,26.906555c0,0.967651 0.02755,1.962891 0.03125,2.9375c-0.0037,0.974609 -0.03125,1.969849 -0.03125,2.9375c0,8.693176 0.09816,17.717163 0.3125,26.90625c0.00024,0.010498 -0.00024,0.020813 0,0.031189c0.321648,13.773804 0.908638,27.878418 1.781227,41.5625c0.00066,0.010315 -0.000648,0.021118 0,0.031189c0.290573,4.554199 0.610992,9.062378 0.968742,13.5c0.000828,0.010315 -0.000832,0.021118 0,0.031189c0.17852,2.213318 0.366688,4.388184 0.562489,6.5625c0.000931,0.010315 -0.000919,0.021118 0,0.03125c0.195881,2.17395 0.411449,4.340332 0.625004,6.46875c0.000999,0.010193 -0.001007,0.021057 0,0.031189c0.428253,4.266296 0.873413,8.425598 1.374977,12.46875c0.030197,0.24353 0.063271,0.476074 0.09375,0.71875c0.44545,3.545532 0.932869,7.012268 1.437492,10.34375c0.035645,0.235291 0.0578,0.484558 0.09375,0.71875c0.001495,0.01001 -0.001503,0.021484 0,0.031189c2.31739,15.087402 5.27037,27.70929 8.937401,36.21875c0.0037,0.008972 -0.0037,0.022583 0,0.031189c0.455086,1.054565 0.928658,2.045044 1.406235,2.96875c0.004204,0.007996 -0.004196,0.023132 0,0.031189c0.477524,0.922058 0.999611,1.777771 1.499985,2.5625c0.004601,0.007019 -0.004601,0.024231 0,0.03125c1.005203,1.573059 2.056625,2.864136 3.156204,3.84375c0.28141,0.251526 0.55603,0.47699 0.84375,0.6875c0.846855,0.619568 1.722572,1.063721 2.624969,1.3125l13.687355,3.75c0,0 1.338829,0.40918 3.812462,1.125c3.711128,1.072754 9.969963,2.867493 18.093559,5c5.415726,1.421631 11.667221,3.007813 18.531036,4.65625c3.431396,0.824829 7.002182,1.65509 10.718628,2.5c0.010208,0.001953 0.021103,-0.002014 0.031204,0c5.566086,1.265198 11.438416,2.539612 17.499802,3.78125c2.023956,0.414551 4.027328,0.812866 6.093704,1.21875c0.010086,0.001953 0.021194,-0.002014 0.031189,0c4.123199,0.809631 8.33989,1.618347 12.593613,2.375c4.263962,0.758423 8.593475,1.475464 12.937363,2.15625c4.343872,0.680725 8.689835,1.327637 13.062363,1.90625c0.010193,0.000977 0.021103,-0.001038 0.031189,0c6.548569,0.866089 13.124634,1.61908 19.593552,2.1875c2.159668,0.189758 4.299423,0.349487 6.437424,0.5c4.275986,0.300903 8.505341,0.530762 12.656113,0.65625c4.150772,0.125427 8.402817,0.194031 12.718613,0.21875c8.785889,0.050293 17.880524,-0.117554 27.249695,-0.40625c13.642456,-0.420471 27.846512,-1.134705 42.374527,-2c19.60437,-1.167664 39.798157,-2.592285 60.12439,-3.875c15.02356,-0.945801 30.098389,-1.807373 45.030762,-2.4375c0.396088,-0.016846 0.791565,-0.046143 1.187469,-0.0625c7.393463,-0.305908 14.769684,-0.551514 22.062286,-0.71875c4.978638,-0.114258 9.93158,-0.184509 14.843567,-0.21875c2.456055,-0.017212 4.907349,-0.036499 7.343689,-0.03125l124.811096,0.28125l-8.656128,35.9375l3.499939,1.5c1.74762,0.632629 4.960083,0.928528 6.468689,0.9375c0.848633,0.005005 1.755066,-0.074097 2.6875,-0.25c0.310669,-0.058472 0.623535,-0.141052 0.9375,-0.21875c0.304565,-0.075562 0.632568,-0.156677 0.9375,-0.25c0.628418,-0.193054 1.263489,-0.421509 1.874939,-0.6875c1.821533,-0.793518 3.534241,-1.931396 4.781189,-3.3125c0.01001,-0.010681 0.021729,-0.020569 0.03125,-0.031189c0.624756,-0.697876 1.112244,-1.451233 1.468689,-2.28125l12.156128,-31.3125l109.93634,0.25c0.746887,0.373901 1.476013,0.745117 2.218689,1.09375c2.979187,1.399536 5.91095,2.597046 8.843689,3.625c1.46228,0.512573 2.917725,0.975525 4.374939,1.40625c5.099976,1.507507 10.187927,2.551514 15.343567,3.25c2.946228,0.399353 5.925903,0.693909 8.937439,0.90625c1.505676,0.10614 3.033936,0.180115 4.562439,0.25c3.057007,0.139954 6.13855,0.21283 9.312378,0.25c6.347473,0.074097 12.97937,0 19.999817,0c10.410034,0 20.322205,-0.531189 29.780884,-1.5625c3.783508,-0.412476 7.491089,-0.897461 11.124878,-1.46875c7.267639,-1.142517 14.228333,-2.618896 20.906067,-4.375c1.669373,-0.439026 3.335693,-0.898743 4.968689,-1.375c4.898987,-1.428772 9.612793,-3.025391 14.187317,-4.78125c1.524902,-0.585266 3.042053,-1.160522 4.53125,-1.78125c2.978271,-1.241455 5.881958,-2.556946 8.718628,-3.9375c1.418335,-0.690247 2.83551,-1.400574 4.218689,-2.125c2.766418,-1.44873 5.466797,-2.97998 8.093689,-4.5625c1.313477,-0.79126 2.596069,-1.613464 3.874939,-2.4375c6.394287,-4.120117 12.363037,-8.625488 17.906067,-13.53125c4.42865,-3.919434 8.601563,-8.079773 12.499878,-12.46875c0.005005,-0.005981 -0.005005,-0.025391 0,-0.031189c0.970398,-1.092896 1.936951,-2.191589 2.874939,-3.3125c0.005005,-0.005981 -0.005005,-0.025085 0,-0.031189c0.937744,-1.120911 1.875732,-2.257751 2.78125,-3.40625c0.005005,-0.005981 -0.005005,-0.024902 0,-0.031189c2.725586,-3.458191 5.313232,-7.018921 7.749878,-10.71875c0.005005,-0.007019 -0.004944,-0.024048 0,-0.03125c0.808838,-1.228516 1.628906,-2.464355 2.40625,-3.71875c0.005005,-0.007996 -0.005005,-0.023743 0,-0.031189c2.340515,-3.778076 4.566772,-7.652466 6.624939,-11.65625c0.003967,-0.007996 -0.004028,-0.023071 0,-0.031189c0.682983,-1.329163 1.347717,-2.678101 1.999939,-4.03125c0.004028,-0.007996 -0.003967,-0.022888 0,-0.031189c0.652039,-1.353271 1.31604,-2.716919 1.9375,-4.09375c0.004028,-0.009033 -0.003967,-0.022705 0,-0.031189c1.246399,-2.762512 2.438049,-5.551697 3.562439,-8.40625c0.004028,-0.009033 -0.003967,-0.0224 0,-0.031189c0.560242,-1.422913 1.094788,-2.867432 1.625,-4.3125c0.002991,-0.009033 -0.002991,-0.022217 0,-0.03125c0.530029,-1.44519 1.062317,-2.907959 1.5625,-4.375c0.5,-1.467102 0.998413,-2.949036 1.46875,-4.4375c0.002991,-0.008972 -0.002991,-0.021973 0,-0.031189c0.470093,-1.488586 0.934326,-2.990479 1.374939,-4.5c0.002991,-0.01001 -0.002991,-0.021667 0,-0.031189c0.440491,-1.509583 0.870117,-3.03241 1.28125,-4.5625c0.002991,-0.01001 -0.002991,-0.021729 0,-0.031189c1.238159,-4.610168 2.368347,-9.30603 3.343689,-14.09375l0,-0.031189c0.323608,-1.589417 0.611206,-3.204407 0.906311,-4.8125l0,-0.03125c2.074707,-11.318359 3.462097,-23.062012 4.156189,-35.21875c0.000488,-0.010254 -0.00061,-0.021057 0,-0.031189c0.098022,-1.727905 0.178711,-3.475647 0.25,-5.21875c0.000427,-0.010254 -0.000366,-0.021057 0,-0.031189c0.142639,-3.496948 0.246704,-7.007202 0.281189,-10.5625c0,-0.010315 -0.000061,-0.021118 0,-0.031189c0.017029,-1.782959 0.01001,-3.578064 0,-5.375c0,-0.635803 -0.021973,-1.271423 -0.031006,-1.90625c0.01001,-0.634827 0.031006,-1.270447 0.031006,-1.90625c0.01001,-1.796997 0.017029,-3.592041 0,-5.375c-0.000061,-0.010193 0,-0.020935 0,-0.031189c-0.033997,-3.555359 -0.13855,-7.065552 -0.281189,-10.5625c-0.000366,-0.010193 0.000427,-0.020935 0,-0.031189c-0.070984,-1.743103 -0.151978,-3.490845 -0.25,-5.21875c-0.00061,-0.010254 0.000488,-0.020935 0,-0.03125c-0.694092,-12.156677 -2.081482,-23.900391 -4.156189,-35.21875l0,-0.031189c-0.295105,-1.608093 -0.582703,-3.223083 -0.906311,-4.8125l0,-0.031189c-0.975342,-4.78772 -2.10553,-9.483643 -3.343689,-14.09375c-0.002991,-0.01001 0.002991,-0.021301 0,-0.031189c-0.411133,-1.53009 -0.840759,-3.052917 -1.28125,-4.5625c-0.002991,-0.01001 0.002991,-0.021301 0,-0.031189c-0.440613,-1.509521 -0.904846,-3.011414 -1.374939,-4.5c-0.002991,-0.009033 0.002991,-0.022339 0,-0.03125c-0.470337,-1.488403 -0.96875,-2.970337 -1.46875,-4.4375c-0.500183,-1.46698 -1.032471,-2.929749 -1.5625,-4.375c-0.002991,-0.008972 0.002991,-0.022278 0,-0.031189c-0.530212,-1.445068 -1.064758,-2.889648 -1.625,-4.3125c-0.003967,-0.008972 0.004028,-0.022278 0,-0.031189c-1.12439,-2.854553 -2.31604,-5.643738 -3.562439,-8.40625c-0.003967,-0.007996 0.004028,-0.022278 0,-0.031189c-0.62146,-1.376831 -1.285461,-2.740479 -1.9375,-4.09375c-0.003967,-0.007996 0.004028,-0.023315 0,-0.031189c-0.652222,-1.353149 -1.316956,-2.702087 -1.999939,-4.03125c-0.004028,-0.007996 0.003967,-0.023315 0,-0.031189c-2.058167,-4.003784 -4.284424,-7.878174 -6.624939,-11.65625c-0.005005,-0.007019 0.005005,-0.023315 0,-0.03125c-0.777344,-1.254333 -1.597412,-2.490173 -2.40625,-3.71875c-0.004944,-0.006958 0.005005,-0.02417 0,-0.031189c-2.436646,-3.69989 -5.024292,-7.260559 -7.749878,-10.71875c-0.005005,-0.005981 0.005005,-0.025269 0,-0.031189c-0.905518,-1.148499 -1.843506,-2.285339 -2.78125,-3.40625c-0.005005,-0.005981 0.005005,-0.025269 0,-0.031189c-0.937988,-1.120911 -1.904541,-2.219604 -2.874939,-3.3125c-0.005005,-0.005981 0.005005,-0.02533 0,-0.031189c-3.898315,-4.388977 -8.071228,-8.549316 -12.499878,-12.46875c-5.54303,-4.905762 -11.51178,-9.411194 -17.906067,-13.53125c-1.27887,-0.824036 -2.561462,-1.64624 -3.874939,-2.4375c-2.626892,-1.58252 -5.327271,-3.11377 -8.093689,-4.5625c-1.383179,-0.724426 -2.800354,-1.434753 -4.218689,-2.125c-2.83667,-1.380554 -5.740356,-2.696106 -8.718628,-3.9375c-1.489197,-0.620728 -3.006348,-1.195984 -4.53125,-1.78125c-4.574524,-1.755859 -9.28833,-3.352539 -14.187317,-4.78125c-1.632996,-0.476257 -3.299316,-0.935974 -4.968689,-1.375c-6.677734,-1.756104 -13.638428,-3.232483 -20.906067,-4.375c-3.633789,-0.571289 -7.34137,-1.056274 -11.124878,-1.46875c-9.458557,-1.032593 -19.370667,-1.563843 -29.780762,-1.563843c-7.020447,0 -13.652344,-0.074097 -19.999756,0c-3.173828,0.037231 -6.255371,0.110107 -9.312439,0.25c-1.528442,0.069946 -3.056702,0.143921 -4.562439,0.25c-3.011536,0.212402 -5.991211,0.506958 -8.937378,0.90625c-5.15564,0.698486 -10.243591,1.742554 -15.343628,3.25c-1.457153,0.430786 -2.912659,0.893677 -4.374939,1.40625c-2.932678,1.027954 -5.864502,2.225464 -8.843628,3.625c-0.742676,0.348633 -1.471863,0.719849 -2.21875,1.09375l-109.936279,0.25l-12.156128,-31.312469c-0.356445,-0.830017 -0.843933,-1.583344 -1.46875,-2.28125c-0.01001,-0.010498 -0.021301,-0.020599 -0.031189,-0.031219c-1.247009,-1.381073 -2.959656,-2.518982 -4.781189,-3.3125c-0.611511,-0.26593 -1.246582,-0.494415 -1.875,-0.6875c-0.304932,-0.093292 -0.632874,-0.174377 -0.9375,-0.25c-0.314026,-0.077698 -0.626831,-0.160248 -0.937561,-0.21875c-0.932373,-0.175903 -1.838867,-0.254974 -2.687439,-0.25l0,-0.000092z"/>
  <path fill="#00bfbf" id="path2853" d="m557.587769,7.000092c-1.508606,0.009003 -4.721069,0.306122 -6.468689,0.9375l-3.499939,1.5l8.656128,35.843781l-124.811157,0.28125c-77.962891,0.165344 -166.522522,-11.503723 -232.934967,-9.5c-66.412399,2.003662 -152.123352,28 -152.123352,28l-13.687347,3.78125c-19.251213,5.296265 -25.718472,97.367004 -25.718472,166.78125c0,1.112976 0.026649,2.253113 0.03125,3.375c-0.004601,1.121826 -0.03125,2.261963 -0.03125,3.375c0,69.414185 6.467258,161.484924 25.718472,166.78125l13.687347,3.78125c0,0 85.710953,25.996338 152.123352,28c66.412445,2.003662 154.972076,-9.665405 232.934967,-9.5l124.811157,0.28125l-8.656128,35.84375l3.499939,1.5c1.74762,0.631348 4.960083,0.928528 6.468689,0.9375c0.848572,0.004944 1.755066,-0.074402 2.687439,-0.25c0.31073,-0.058411 0.623535,-0.141235 0.9375,-0.21875c0.304626,-0.075439 0.632629,-0.15686 0.9375,-0.25c0.628479,-0.192688 1.263489,-0.422058 1.875,-0.6875c1.821533,-0.792053 3.534241,-1.902771 4.781189,-3.28125c0.01001,-0.010742 0.021729,-0.020813 0.031189,-0.03125c0.624817,-0.696533 1.112305,-1.452759 1.46875,-2.28125l12.156128,-31.25l109.936279,0.25c23.900391,11.942383 45.51123,10.71875 73.592957,10.71875c133.24884,0 187.626282,-86.586304 186.998108,-201.375c0,-0.780151 -0.018982,-1.565613 -0.031006,-2.34375c0.012024,-0.778076 0.031006,-1.563538 0.031006,-2.34375c0.628174,-114.788635 -53.749268,-201.375 -186.998108,-201.375c-28.081726,0 -49.692566,-1.223633 -73.592957,10.71875l-109.936279,0.25l-12.156128,-31.249969c-0.356445,-0.828461 -0.843933,-1.584686 -1.46875,-2.28125c-0.01001,-0.010406 -0.021301,-0.020599 -0.031189,-0.031219c-1.246948,-1.378479 -2.959656,-2.489227 -4.781189,-3.28125c-0.611511,-0.265442 -1.246521,-0.494812 -1.875,-0.6875c-0.304871,-0.093079 -0.632874,-0.174591 -0.9375,-0.25c-0.313965,-0.077576 -0.62677,-0.160339 -0.9375,-0.21875c-0.932373,-0.175598 -1.838867,-0.254974 -2.687439,-0.25l0,-0.000092z"/>
  <path opacity="0.9" fill="#262626" id="path3643" d="m347.402893,368.543335c-33.364075,0 -65.306885,1.799988 -94.811447,5.0625c25.660202,48.713684 97.985031,30.26532 205.560287,31.53125c49.68634,0.584717 89.543091,1.879272 121.529907,2.375c-47.159668,-23.334167 -133.526672,-38.96875 -232.278748,-38.96875z"/>
  <path opacity="0.5" fill="#000000" id="path3658" d="m347.402893,368.543335c-3.206421,0 -6.383057,0.02948 -9.562378,0.0625c0.818268,16.171021 6.42804,30.256531 14.593597,38.84375c4.671417,-0.075623 9.495087,-0.196533 14.437347,-0.34375c-8.565674,-8.192322 -14.592621,-22.228027 -15.718567,-38.5625c-1.251282,-0.005005 -2.49469,0 -3.75,0z"/>
  <path fill="#212121" fill-rule="nonzero" stroke="#191919" stroke-width="5" stroke-miterlimit="4" id="path3707" d="m936.084045,340.806885l-5.093689,0.59375c-21.544739,2.512695 -37.688232,25.978577 -39.280823,54.53125l-0.375,7.125l5.249939,-4.84375c15.88916,-14.68042 28.303162,-32.507385 37.405823,-52.75l2.09375,-4.65625z"/>
  <path opacity="0.5" fill="none" stroke="#292929" stroke-width="6" stroke-linecap="round" stroke-linejoin="round" stroke-miterlimit="4" id="path3715" d="m730.537415,351.804993c0,0 79.677246,-22.596436 105.376282,-31.981812c26.839417,-9.801819 98.858887,-39.14563 98.858887,-39.14563c0,0 -8.740967,42.469666 -30.482849,57.918091c-77.223267,54.86969 -232.685852,53.853638 -232.685852,53.853638"/>
  <path fill="url(#linearGradient4149)" id="path3757" d="m817.032349,331.144775l-4.437439,2.34375c0.989136,1.156799 1.795471,2.42865 2.374939,3.84375c4.797913,11.717041 -10.73584,29.235962 -26.874695,35.78125c-0.516724,0.209595 -1.812866,0.840637 -3.406189,1.65625l13.624817,-3.875c17.305786,-8.457642 27.470459,-23.08197 22.999756,-34c-0.916138,-2.237366 -2.375183,-4.166077 -4.281189,-5.75z"/>
  <path fill="url(#linearGradient4203)" id="path3787" d="m825.616516,326.683716l-4.437439,2.34375c0.989136,1.156799 1.795471,2.42865 2.374939,3.84375c4.797913,11.717041 -10.73584,29.235962 -26.874695,35.78125c-0.516785,0.209595 -1.812866,0.840637 -3.406189,1.65625l13.624817,-3.875c17.305786,-8.457642 27.470459,-23.08197 22.999756,-34c-0.916138,-2.237366 -2.375183,-4.166077 -4.281189,-5.75z"/>
  <path fill="url(#linearGradient4155)" id="path3752" d="m831.803589,325.26947l-4.437439,2.34375c0.989136,1.156799 1.795471,2.42865 2.374939,3.84375c4.797913,11.717041 -10.73584,29.235962 -26.874695,35.78125c-0.516724,0.209595 -1.812866,0.840637 -3.406189,1.65625l13.624817,-3.875c17.305786,-8.457642 27.470459,-23.08197 22.999756,-34c-0.916138,-2.237366 -2.375183,-4.166077 -4.281189,-5.75z"/>
  <path fill="url(#linearGradient4205)" id="path3735" d="m848.710022,320.996216l-6.187439,1.84375c0.960144,1.71283 1.65448,3.532288 2.03125,5.46875c3.119385,16.033875 -20.961975,34.283569 -43.030823,38.5c-3.394958,0.648621 -28.883972,8.575989 -32.157898,8.804443l0,4.125l41.439026,-12.148193c26.2854,-5.496277 44.948853,-22.447998 41.874573,-38.25c-0.595642,-3.061646 -1.956055,-5.859558 -3.968689,-8.34375z"/>
  <path fill="url(#linearGradient4207)" id="path3783" d="m848.710022,320.996216l-6.187439,1.84375c0.960144,1.71283 1.65448,3.532288 2.03125,5.46875c3.119385,16.033875 -20.961975,34.283569 -43.030823,38.5c-3.394958,0.648621 -28.883972,8.575989 -32.157898,8.804443l0,4.125l41.439026,-12.148193c26.2854,-5.496277 44.948853,-22.447998 41.874573,-38.25c-0.595642,-3.061646 -1.956055,-5.859558 -3.968689,-8.34375z"/>
  <path fill="url(#linearGradient4209)" id="path3799" d="m804.18573,335.764221l-3.964111,2.09375c0.883667,1.033325 1.604004,2.169556 2.121643,3.433655c4.286072,10.467102 -9.590576,26.117188 -24.007751,31.964233c-0.46167,0.187195 -1.619507,0.750977 -3.042847,1.479553l12.171387,-3.461609c15.459595,-7.55542 24.539978,-20.619629 20.546143,-30.372986c-0.81842,-1.998657 -2.121826,-3.721619 -3.824463,-5.136597z"/>
  <path fill="url(#linearGradient4153)" id="path3803" d="m790.378418,339.337524l-3.96405,2.09375c0.883606,1.033325 1.603943,2.169556 2.121582,3.433655c4.286072,10.467102 -9.590576,26.117126 -24.007751,31.964233c-0.46167,0.187195 -1.619507,0.750977 -3.042847,1.479553l12.171387,-3.46167c15.459595,-7.555359 24.539978,-20.619568 20.546143,-30.372925c-0.81842,-1.998657 -2.121765,-3.721619 -3.824463,-5.136597z"/>
  <path fill="url(#linearGradient4211)" id="rect3861" d="m180.328598,359.030396c8.29303,-2.023376 15.485535,-1.478821 19.79747,5.78717l-2.493362,17.896729c-6.875107,6.173279 -13.750229,4.950928 -20.625351,0.155457l3.321243,-23.839355z"/>
  <path fill="url(#linearGradient4213)" id="path3864" d="m200.604797,362.293701c8.150223,-1.210205 15.166672,-0.572815 18.842819,5.508118l-2.373108,17.033752c-6.483917,2.974792 -12.98291,5.209656 -19.630814,0.147949l3.161102,-22.689819z"/>
  <path opacity="0.9" fill="#191919" fill-rule="nonzero" stroke-width="5" id="path4025" d="m347.402893,366.056885c-33.453949,0 -65.492065,1.789368 -95.092697,5.0625l-3.656219,0.40625l1.718719,3.25c6.671066,12.664429 16.5616,21.113403 29.06218,26.4375c12.500641,5.324097 27.572144,7.61261 45.093292,8.4375c35.042267,1.64978 79.954163,-2.631226 133.592316,-2c49.65863,0.584351 89.507874,1.878723 121.529907,2.375l1.125,-4.75c-47.849243,-23.675354 -134.356567,-39.21875 -233.372498,-39.21875zm0,5c91.169495,0 171.747314,13.478638 220.09137,33.71875c-29.952026,-0.582397 -65.211914,-1.606018 -109.311279,-2.125c-53.937103,-0.634705 -98.975861,3.652161 -133.404816,2.03125c-17.214508,-0.810486 -31.766846,-3.105408 -43.405792,-8.0625c-10.453186,-4.452087 -18.485291,-11.154358 -24.499756,-20.90625c28.307465,-2.983032 58.734711,-4.65625 90.530273,-4.65625z"/>
  <path opacity="0.9" fill="#262626" stroke="#191919" stroke-width="5" stroke-miterlimit="4" id="rect2864" d="m207.560287,120.687622l-77.749161,12.46875c-27.150406,4.354126 -48.947144,48.772766 -50.999451,104.84375c2.052307,56.070984 23.849045,100.489624 50.999451,104.84375l77.749161,12.46875c13.295868,0 23.999756,-10.703979 23.999756,-24l0,-186.625c0,-13.296021 -10.703888,-24 -23.999756,-24z"/>
  <path opacity="0.9" fill="#262626" stroke="#191919" stroke-width="5" stroke-miterlimit="4" stroke-dashoffset="0" id="path3703" d="m639.024353,86.468872c-2.969177,0 -5.89325,0.332153 -8.781128,0.96875c-0.010437,-0.01001 -0.020813,-0.020996 -0.03125,-0.031189l-63.843079,12.3125c-17.727783,6.604675 -31.999634,14.271973 -31.999634,32l0,212.5625c0,17.727966 14.271851,25.395325 31.999634,32l63.843079,12.3125c0.010498,-0.010193 0.020752,-0.021118 0.031189,-0.031189c2.887878,0.636597 5.811951,0.96875 8.781128,0.96875c45.395508,0 82.197571,-57.362671 82.311584,-151.53125c-0.114075,-94.16864 -36.916138,-151.53125 -82.311584,-151.53125l0.000061,-0.000122z"/>
  <path opacity="0.9" fill="#262626" id="path4157" d="m347.402893,107.456726c-33.364075,0 -65.306885,-1.799988 -94.811447,-5.0625c25.660202,-48.713684 97.985031,-30.26532 205.560287,-31.53125c49.68634,-0.584717 89.543091,-1.879272 121.529907,-2.375c-47.159668,23.334167 -133.526672,38.96875 -232.278748,38.96875z"/>
  <path opacity="0.5" fill="#000000" id="path4159" d="m347.402893,107.456726c-3.206421,0 -6.383057,-0.02948 -9.562378,-0.0625c0.818268,-16.171021 6.42804,-30.256531 14.593597,-38.84375c4.671417,0.075623 9.495087,0.196533 14.437347,0.34375c-8.565674,8.192322 -14.592621,22.228027 -15.718567,38.5625c-1.251282,0.005005 -2.49469,0 -3.75,0z"/>
  <path fill="#212121" fill-rule="nonzero" stroke="#191919" stroke-width="5" stroke-miterlimit="4" id="path4161" d="m936.084045,135.193176l-5.093689,-0.59375c-21.544739,-2.512695 -37.688232,-25.978577 -39.280823,-54.53125l-0.375,-7.125l5.249939,4.84375c15.88916,14.68042 28.303162,32.507385 37.405823,52.75l2.09375,4.65625z"/>
  <path opacity="0.5" fill="none" stroke="#292929" stroke-width="6" stroke-linecap="round" stroke-linejoin="round" stroke-miterlimit="4" id="path4163" d="m730.537415,124.195068c0,0 79.677246,22.596436 105.376282,31.981812c26.839417,9.801819 98.858887,39.14563 98.858887,39.14563c0,0 -8.740967,-42.469666 -30.482849,-57.918091c-77.223267,-54.86969 -232.685852,-53.853577 -232.685852,-53.853577"/>
  <path fill="url(#linearGradient4185)" id="path4165" d="m817.032349,144.855286l-4.437439,-2.34375c0.989136,-1.156799 1.795471,-2.42865 2.374939,-3.84375c4.797913,-11.717041 -10.73584,-29.235962 -26.874695,-35.78125c-0.516724,-0.209595 -1.812866,-0.840637 -3.406189,-1.65625l13.624817,3.875c17.305786,8.457642 27.470459,23.08197 22.999756,34c-0.916138,2.237366 -2.375183,4.166077 -4.281189,5.75z"/>
  <path fill="url(#linearGradient4187)" id="path4167" d="m825.616516,149.316406l-4.437439,-2.34375c0.989136,-1.156799 1.795471,-2.42865 2.374939,-3.84375c4.797913,-11.717041 -10.73584,-29.235962 -26.874695,-35.78125c-0.516785,-0.209595 -1.812866,-0.840637 -3.406189,-1.65625l13.624817,3.875c17.305786,8.457642 27.470459,23.08197 22.999756,34c-0.916138,2.237366 -2.375183,4.166077 -4.281189,5.75z"/>
  <path fill="url(#linearGradient4189)" id="path4169" d="m831.803589,150.730591l-4.437439,-2.34375c0.989136,-1.156799 1.795471,-2.42865 2.374939,-3.84375c4.797913,-11.717041 -10.73584,-29.235962 -26.874695,-35.78125c-0.516724,-0.209595 -1.812866,-0.840637 -3.406189,-1.65625l13.624817,3.875c17.305786,8.457642 27.470459,23.08197 22.999756,34c-0.916138,2.237366 -2.375183,4.166077 -4.281189,5.75z"/>
  <path fill="url(#linearGradient4191)" id="path4171" d="m848.710022,155.003906l-6.187439,-1.84375c0.960144,-1.71283 1.65448,-3.532288 2.03125,-5.46875c3.119385,-16.033875 -20.961975,-34.283569 -43.030823,-38.5c-3.394958,-0.648621 -28.883972,-8.575989 -32.157898,-8.804443l0,-4.125l41.439026,12.148193c26.2854,5.496277 44.948853,22.447998 41.874573,38.25c-0.595642,3.061646 -1.956055,5.859558 -3.968689,8.34375z"/>
  <path fill="url(#linearGradient4193)" id="path4173" d="m848.710022,155.003906l-6.187439,-1.84375c0.960144,-1.71283 1.65448,-3.532288 2.03125,-5.46875c3.119385,-16.033875 -20.961975,-34.283569 -43.030823,-38.5c-3.394958,-0.648621 -28.883972,-8.575989 -32.157898,-8.804443l0,-4.125l41.439026,12.148193c26.2854,5.496277 44.948853,22.447998 41.874573,38.25c-0.595642,3.061646 -1.956055,5.859558 -3.968689,8.34375z"/>
  <path fill="url(#linearGradient4195)" id="path4175" d="m804.18573,140.23584l-3.964111,-2.093689c0.883667,-1.033386 1.604004,-2.169556 2.121643,-3.433716c4.286072,-10.467102 -9.590576,-26.117188 -24.007751,-31.964172c-0.46167,-0.187256 -1.619507,-0.751038 -3.042847,-1.479614l12.171387,3.461609c15.459595,7.55542 24.539978,20.619629 20.546143,30.372986c-0.81842,1.998657 -2.121826,3.721619 -3.824463,5.136597z"/>
  <path fill="url(#linearGradient4197)" id="path4177" d="m790.378418,136.662537l-3.96405,-2.09375c0.883606,-1.033325 1.603943,-2.169556 2.121582,-3.433655c4.286072,-10.467102 -9.590576,-26.117188 -24.007751,-31.964233c-0.46167,-0.187195 -1.619507,-0.750977 -3.042847,-1.479553l12.171387,3.46167c15.459595,7.555359 24.539978,20.619568 20.546143,30.372925c-0.81842,1.998657 -2.121765,3.721619 -3.824463,5.136597z"/>
  <path fill="url(#linearGradient4199)" id="path4179" d="m180.328598,116.969666c8.29303,2.023376 15.485535,1.478821 19.79747,-5.78717l-2.493362,-17.896729c-6.875107,-6.173279 -13.750229,-4.950928 -20.625351,-0.155457l3.321243,23.839355z"/>
  <path fill="url(#linearGradient4201)" id="path4181" d="m200.604797,113.706421c8.150223,1.210205 15.166672,0.572815 18.842819,-5.508118l-2.373108,-17.033752c-6.483917,-2.974792 -12.98291,-5.209656 -19.630814,-0.147949l3.161102,22.689819z"/>
  <path opacity="0.9" fill="#191919" fill-rule="nonzero" stroke-width="5" id="path4183" d="m347.402893,109.943176c-33.453949,0 -65.492065,-1.789368 -95.092697,-5.0625l-3.656219,-0.40625l1.718719,-3.25c6.671066,-12.664429 16.5616,-21.113403 29.06218,-26.4375c12.500641,-5.324097 27.572144,-7.61261 45.093292,-8.4375c35.042267,-1.64978 79.954163,2.631226 133.592316,2c49.65863,-0.584412 89.507874,-1.878723 121.529907,-2.375l1.125,4.75c-47.849243,23.675354 -134.356567,39.21875 -233.372498,39.21875zm0,-5c91.169495,0 171.747314,-13.478638 220.09137,-33.71875c-29.952026,0.582397 -65.211914,1.606018 -109.311279,2.125c-53.937103,0.634705 -98.975861,-3.652161 -133.404816,-2.03125c-17.214508,0.810486 -31.766846,3.105408 -43.405792,8.0625c-10.453186,4.452087 -18.485291,11.154358 -24.499756,20.90625c28.307465,2.983032 58.734711,4.65625 90.530273,4.65625z"/>
 </g>
</svg>