<?xml version="1.0" encoding="UTF-8" standalone="no"?>
<!-- Created with Inkscape (http://www.inkscape.org/) -->

<svg
   xmlns:dc="http://purl.org/dc/elements/1.1/"
   xmlns:cc="http://creativecommons.org/ns#"
   xmlns:rdf="http://www.w3.org/1999/02/22-rdf-syntax-ns#"
   xmlns:svg="http://www.w3.org/2000/svg"
   xmlns="http://www.w3.org/2000/svg"
   xmlns:xlink="http://www.w3.org/1999/xlink"
   xmlns:sodipodi="http://sodipodi.sourceforge.net/DTD/sodipodi-0.dtd"
   xmlns:inkscape="http://www.inkscape.org/namespaces/inkscape"
   width="198.70641"
   height="73.016655"
   id="svg3011"
   version="1.1"
   inkscape:version="0.48.3.1 r9886"
   sodipodi:docname="flame.svg">
  <defs
     id="defs3013">
    <linearGradient
       inkscape:collect="always"
       id="linearGradient3194">
      <stop
         style="stop-color:#ff3300;stop-opacity:1;"
         offset="0"
         id="stop3196" />
      <stop
         style="stop-color:#ffff00;stop-opacity:1"
         offset="1"
         id="stop3198" />
    </linearGradient>
    <inkscape:perspective
       sodipodi:type="inkscape:persp3d"
       inkscape:vp_x="0 : 526.18109 : 1"
       inkscape:vp_y="0 : 1000 : 0"
       inkscape:vp_z="744.09448 : 526.18109 : 1"
       inkscape:persp3d-origin="372.04724 : 350.78739 : 1"
       id="perspective3019" />
    <inkscape:perspective
       id="perspective3000"
       inkscape:persp3d-origin="0.5 : 0.33333333 : 1"
       inkscape:vp_z="1 : 0.5 : 1"
       inkscape:vp_y="0 : 1000 : 0"
       inkscape:vp_x="0 : 0.5 : 1"
       sodipodi:type="inkscape:persp3d" />
    <linearGradient
       inkscape:collect="always"
       xlink:href="#linearGradient4114"
       id="linearGradient4132"
       gradientUnits="userSpaceOnUse"
       gradientTransform="matrix(-0.25119765,0,0,0.18498046,-853.49227,-84.617146)"
       x1="-1244.0671"
       y1="6760.9541"
       x2="1663.1678"
       y2="6920.9429" />
    <linearGradient
       id="linearGradient4114">
      <stop
         style="stop-color:#fb8b00;stop-opacity:1;"
         offset="0"
         id="stop4116" />
      <stop
         style="stop-color:#980101;stop-opacity:1"
         offset="1"
         id="stop4118" />
    </linearGradient>
    <linearGradient
       y2="6920.9429"
       x2="1663.1678"
       y1="6760.9541"
       x1="-1244.0671"
       gradientTransform="matrix(-0.25119765,0,0,0.18498046,334.52518,-778.68736)"
       gradientUnits="userSpaceOnUse"
       id="linearGradient3009"
       xlink:href="#linearGradient4114"
       inkscape:collect="always" />
    <linearGradient
       inkscape:collect="always"
       xlink:href="#linearGradient4114"
       id="linearGradient3040"
       gradientUnits="userSpaceOnUse"
       gradientTransform="matrix(0.0627994,0,0,-0.04624511,192.52127,845.0198)"
       x1="-1244.0671"
       y1="6760.9541"
       x2="1663.1678"
       y2="6920.9429" />
    <linearGradient
       inkscape:collect="always"
       xlink:href="#linearGradient4114"
       id="linearGradient3048"
       gradientUnits="userSpaceOnUse"
       gradientTransform="matrix(0.12559881,0,0,-0.09249022,217.65739,1275.9449)"
       x1="-1244.0671"
       y1="6760.9541"
       x2="1663.1678"
       y2="6920.9429" />
    <linearGradient
       inkscape:collect="always"
       xlink:href="#linearGradient4114"
       id="linearGradient3184"
       gradientUnits="userSpaceOnUse"
       gradientTransform="matrix(-0.05185742,0.00316331,-0.02223772,-0.03851684,280.91665,1267.6591)"
       x1="-1244.0671"
       y1="6760.9541"
       x2="1663.1678"
       y2="6920.9429" />
    <linearGradient
       inkscape:collect="always"
       xlink:href="#linearGradient3194"
       id="linearGradient3200"
       x1="49.137928"
       y1="997.83105"
       x2="155.20395"
       y2="1003.4412"
       gradientUnits="userSpaceOnUse"
       gradientTransform="matrix(1,0,0,-1,0,2006.8824)" />
    <filter
       inkscape:collect="always"
       id="filter3996"
       color-interpolation-filters="sRGB">
      <feGaussianBlur
         inkscape:collect="always"
         stdDeviation="1.2946965"
         id="feGaussianBlur3998" />
    </filter>
  </defs>
  <sodipodi:namedview
     id="base"
     pagecolor="#ffffff"
     bordercolor="#666666"
     borderopacity="1.0"
     inkscape:pageopacity="0.0"
     inkscape:pageshadow="2"
     inkscape:zoom="1.668772"
     inkscape:cx="45.071256"
     inkscape:cy="20.287402"
     inkscape:document-units="px"
     inkscape:current-layer="layer1"
     showgrid="false"
     inkscape:window-width="1280"
     inkscape:window-height="1024"
     inkscape:window-x="1440"
     inkscape:window-y="0"
     inkscape:window-maximized="0"
     fit-margin-top="0"
     fit-margin-left="0"
     fit-margin-right="0"
     fit-margin-bottom="0">
    <inkscape:grid
       type="xygrid"
       id="grid3042"
       empspacing="5"
       visible="true"
       enabled="true"
       snapvisiblegridlinesonly="true"
       originx="-20.313609px"
       originy="2.5684794px" />
  </sodipodi:namedview>
  <g
     inkscape:label="Layer 1"
     inkscape:groupmode="layer"
     id="layer1"
     transform="translate(-20.313609,-981.914)">
    <g
       id="g3214"
       style="fill:#000000;filter:url(#filter3996)"
       transform="matrix(-1,0,0,1,238.13514,14.381833)">
      <path
         style="fill:#000000;fill-opacity:1;stroke:#fee205;stroke-width:0.17734198;stroke-linecap:butt;stroke-linejoin:miter;stroke-miterlimit:4;stroke-opacity:1;stroke-dasharray:none"
         d="m 214.62559,999.83412 c -8.70017,0.65398 -15.08993,4.31088 -21.87784,7.35898 -9.65183,2.55 -22.51735,-0.4468 -34.78644,-4.5131 -9.20203,-2.1484 -22.75113,-3.07298 -22.54379,5.5836 6.95607,8.5175 13.49827,0.9271 17.57909,-1.455 6.76786,-3.5516 18.33113,2.1426 27.49498,3.5821 4.31711,1.7122 13.33266,0.3721 12.68592,-0.4635 -5.80107,6.6771 -20.52613,0.1762 -30.44705,0.7128 -4.88064,-1.1668 -16.64513,3.2291 -7.14572,7.8048 9.23349,-1.168 1.09819,-8.3257 18.52831,-4.5821 -11.85647,0.7231 -7.51217,4.1944 -9.18487,6.5755 -5.05086,2.9865 -12.81439,3.7578 -21.23996,-0.7589 -10.00323,-4.4468 -20.7911,-11.1346 -30.14529,-10.6951 -11.3431,-3.4822 -4.7151,12.8907 3.7066,8.7208 5.47219,-1.735 13.6594,-1.4062 21.07988,2.7568 -10.26319,-1.9866 -15.92948,3.5194 -25.23918,3.1083 -7.4489,-0.9414 -16.033203,-6.9446 -22.81171,-5.5706 -6.089301,-0.9316 -13.773493,5.2936 -2.598101,9.2892 7.807904,0.7232 12.529311,-4.3876 21.551911,-1.5473 7.40289,1.7394 -6.93601,-0.3923 -7.5292,2.469 -3.596807,3.9846 -7.065906,8.2405 -14.240107,8.5468 -7.421602,1.4979 -17.277204,0.4047 -26.413207,-5.9786 -44.537477,-37.89376 -41.902849,-17.772 -22.0952,-46.51103 4.188408,-6.07687 11.535508,-10.24528 20.04261,-12.17637 6.503196,-1.47619 19.336796,7.65058 22.607192,0.69873 5.03341,-1.19999 -2.781095,8.17283 -6.697798,7.85795 -5.423999,1.36821 -21.152794,-3.33514 -14.526899,6.9153 7.844707,5.9638 16.5511,3.49325 20.261305,-0.16888 9.470494,-3.04972 10.028593,-15.23252 22.636604,-14.75068 14.7202,-0.57247 26.54348,7.92171 31.84894,2.9171 -2.13812,7.39966 -22.82665,-1.16684 -28.29825,4.04823 4.7963,11.83282 25,-3.86364 43.2293,-1.51658 -17.82059,0.027 -14.09528,18.08547 -41.6607,12.5151 -6.37919,-1.20209 -16.892595,-0.54932 -11.483303,5.87287 9.441603,4.32046 13.967113,0.8473 18.903903,-2.56374 4.5078,-3.11469 14.2776,-0.44592 18.56402,-4.39193 26.80413,-13.54687 26.29009,-4.17206 44.37815,0.13693 -19.90212,-5.28969 -16.93275,4.09833 -26.19032,1.76484 -10.39831,-2.62096 -11.01194,7.62688 0.71427,6.91841 17.99511,-5.24852 13.83946,-13.46605 40.9776,-2.00682 3.35947,1.4915 11.47629,0.1497 4.99941,1.38503 -6.78835,2.22939 -18.46366,-2.5032 -24.1732,2.40954 1.76156,5.7873 19.15458,2.6274 23.36011,1.0542"
         id="path3216"
         sodipodi:nodetypes="ccccccccccccccccccccccssccccccccccsccsccccc"
         inkscape:connector-curvature="0" />
      <path
         sodipodi:nodetypes="ccccccccccccccccccccccssccccccccccsccsccccc"
         id="path3218"
         d="m 211.62937,1008.2468 c -8.70016,-0.654 -15.08993,-4.3109 -21.87781,-7.359 -9.65186,-2.54991 -22.51736,0.4469 -34.78647,4.5131 -9.20197,2.1484 -22.751,3.0729 -22.54377,-5.58351 6.9561,-8.5176 13.49825,-0.9272 17.57906,1.45511 6.76786,3.5514 18.33116,-2.14281 27.49499,-3.58221 4.31713,-1.7123 13.33266,-0.3721 12.6859,0.4634 -5.80107,-6.6771 -20.52608,-0.1761 -30.44702,-0.7128 -4.88064,1.1669 -16.64513,-3.2291 -7.14571,-7.8048 9.23351,1.1681 1.09818,8.3258 18.52833,4.5823 -11.85651,-0.7233 -7.51222,-4.1946 -9.18489,-6.5757 -5.05088,-2.9865 -12.81442,-3.7578 -21.23992,0.759 -10.0033,4.4466 -20.79121,11.1347 -30.14561,10.6952 -11.342798,3.48191 -4.71479,-12.8909 3.70681,-8.721 5.47199,1.7351 13.65949,1.4062 21.07994,-2.7568 -10.26315,1.9867 -15.92965,-3.5193 -25.23914,-3.1081 -7.44911,0.9412 -16.033302,6.9444 -22.811609,5.5705 -6.089508,0.9316 -13.773706,-5.2937 -2.598305,-9.2893 7.807899,-0.7231 12.529396,4.3877 21.552114,1.5474 7.40248,-1.7395 -6.936113,0.3921 -7.529308,-2.469 -3.5967,-3.9847 -7.0657,-8.2406 -14.240108,-8.5469 -7.421894,-1.4977 -17.277293,-0.4046 -26.413196,5.9787 -44.537392,37.89361 -41.903035,17.7719 -22.095309,46.51091 4.188399,6.0768 11.535806,10.2453 20.042811,12.1764 6.5031,1.4763 19.336697,-7.6506 22.607098,-0.6987 5.033297,1.1999 -2.780993,-8.1729 -6.697901,-7.8579 -5.423797,-1.3685 -21.152796,3.335 -14.526997,-6.9154 7.844998,-5.9637 16.551405,-3.4931 20.261603,0.1689 9.470298,3.0498 10.028593,15.2327 22.636497,14.7507 14.72011,0.5724 26.5434,-7.9217 31.84891,-2.9172 -2.13801,-7.3997 -22.8265,1.1668 -28.29821,-4.048 4.7964,-11.8329 24.9999,3.8636 43.22936,1.5163 -17.82056,-0.027 -14.09524,-18.0853 -41.66105,-12.5149 -6.379005,1.2019 -16.892211,0.5493 -11.483214,-5.8729 9.441704,-4.3204 13.967304,-0.8473 18.904004,2.5636 4.5077,3.1148 14.27771,0.4461 18.5642,4.392 26.80403,13.5468 26.28998,4.172 44.378,-0.1369 -19.90207,5.2897 -16.93273,-4.0982 -26.1903,-1.7648 -10.39826,2.6209 -11.01194,-7.6268 0.71426,-6.9183 17.99511,5.2485 13.83949,13.4659 40.97762,2.0067 3.35949,-1.4915 11.47631,-0.1497 4.99942,-1.3849 -6.78837,-2.2295 -18.46365,2.5031 -24.17322,-2.4095 1.7616,-5.7874 19.15461,-2.6275 23.36013,-1.0543"
         style="fill:#000000;fill-opacity:1;stroke:#fee205;stroke-width:0.17734198;stroke-linecap:butt;stroke-linejoin:miter;stroke-miterlimit:4;stroke-opacity:1;stroke-dasharray:none"
         inkscape:connector-curvature="0" />
    </g>
    <g
       id="g3210"
       transform="matrix(-1,0,0,1,239.33363,11.385618)">
      <path
         sodipodi:nodetypes="ccccccccccccccccccccccssccccccccccsccsccccc"
         id="path4130"
         d="m 214.62559,999.83412 c -8.70017,0.65398 -15.08993,4.31088 -21.87784,7.35898 -9.65183,2.55 -22.51735,-0.4468 -34.78644,-4.5131 -9.20203,-2.1484 -22.75113,-3.07298 -22.54379,5.5836 6.95607,8.5175 13.49827,0.9271 17.57909,-1.455 6.76786,-3.5516 18.33113,2.1426 27.49498,3.5821 4.31711,1.7122 13.33266,0.3721 12.68592,-0.4635 -5.80107,6.6771 -20.52613,0.1762 -30.44705,0.7128 -4.88064,-1.1668 -16.64513,3.2291 -7.14572,7.8048 9.23349,-1.168 1.09819,-8.3257 18.52831,-4.5821 -11.85647,0.7231 -7.51217,4.1944 -9.18487,6.5755 -5.05086,2.9865 -12.81439,3.7578 -21.23996,-0.7589 -10.00323,-4.4468 -20.7911,-11.1346 -30.14529,-10.6951 -11.3431,-3.4822 -4.7151,12.8907 3.7066,8.7208 5.47219,-1.735 13.6594,-1.4062 21.07988,2.7568 -10.26319,-1.9866 -15.92948,3.5194 -25.23918,3.1083 -7.4489,-0.9414 -16.033203,-6.9446 -22.81171,-5.5706 -6.089301,-0.9316 -13.773493,5.2936 -2.598101,9.2892 7.807904,0.7232 12.529311,-4.3876 21.551911,-1.5473 7.40289,1.7394 -6.93601,-0.3923 -7.5292,2.469 -3.596807,3.9846 -7.065906,8.2405 -14.240107,8.5468 -7.421602,1.4979 -17.277204,0.4047 -26.413207,-5.9786 -44.537477,-37.89376 -41.902849,-17.772 -22.0952,-46.51103 4.188408,-6.07687 11.535508,-10.24528 20.04261,-12.17637 6.503196,-1.47619 19.336796,7.65058 22.607192,0.69873 5.03341,-1.19999 -2.781095,8.17283 -6.697798,7.85795 -5.423999,1.36821 -21.152794,-3.33514 -14.526899,6.9153 7.844707,5.9638 16.5511,3.49325 20.261305,-0.16888 9.470494,-3.04972 10.028593,-15.23252 22.636604,-14.75068 14.7202,-0.57247 26.54348,7.92171 31.84894,2.9171 -2.13812,7.39966 -22.82665,-1.16684 -28.29825,4.04823 4.7963,11.83282 25,-3.86364 43.2293,-1.51658 -17.82059,0.027 -14.09528,18.08547 -41.6607,12.5151 -6.37919,-1.20209 -16.892595,-0.54932 -11.483303,5.87287 9.441603,4.32046 13.967113,0.8473 18.903903,-2.56374 4.5078,-3.11469 14.2776,-0.44592 18.56402,-4.39193 26.80413,-13.54687 26.29009,-4.17206 44.37815,0.13693 -19.90212,-5.28969 -16.93275,4.09833 -26.19032,1.76484 -10.39831,-2.62096 -11.01194,7.62688 0.71427,6.91841 17.99511,-5.24852 13.83946,-13.46605 40.9776,-2.00682 3.35947,1.4915 11.47629,0.1497 4.99941,1.38503 -6.78835,2.22939 -18.46366,-2.5032 -24.1732,2.40954 1.76156,5.7873 19.15458,2.6274 23.36011,1.0542"
         style="fill:url(#linearGradient3184);fill-opacity:1;stroke:#fee205;stroke-width:0.17734198;stroke-linecap:butt;stroke-linejoin:miter;stroke-miterlimit:4;stroke-opacity:1;stroke-dasharray:none"
         inkscape:connector-curvature="0" />
      <path
         style="fill:url(#linearGradient3200);fill-opacity:1;stroke:#fee205;stroke-width:0.17734198;stroke-linecap:butt;stroke-linejoin:miter;stroke-miterlimit:4;stroke-opacity:1;stroke-dasharray:none"
         d="m 211.62937,1008.2468 c -8.70016,-0.654 -15.08993,-4.3109 -21.87781,-7.359 -9.65186,-2.54991 -22.51736,0.4469 -34.78647,4.5131 -9.20197,2.1484 -22.751,3.0729 -22.54377,-5.58351 6.9561,-8.5176 13.49825,-0.9272 17.57906,1.45511 6.76786,3.5514 18.33116,-2.14281 27.49499,-3.58221 4.31713,-1.7123 13.33266,-0.3721 12.6859,0.4634 -5.80107,-6.6771 -20.52608,-0.1761 -30.44702,-0.7128 -4.88064,1.1669 -16.64513,-3.2291 -7.14571,-7.8048 9.23351,1.1681 1.09818,8.3258 18.52833,4.5823 -11.85651,-0.7233 -7.51222,-4.1946 -9.18489,-6.5757 -5.05088,-2.9865 -12.81442,-3.7578 -21.23992,0.759 -10.0033,4.4466 -20.79121,11.1347 -30.14561,10.6952 -11.342798,3.48191 -4.71479,-12.8909 3.70681,-8.721 5.47199,1.7351 13.65949,1.4062 21.07994,-2.7568 -10.26315,1.9867 -15.92965,-3.5193 -25.23914,-3.1081 -7.44911,0.9412 -16.033302,6.9444 -22.811609,5.5705 -6.089508,0.9316 -13.773706,-5.2937 -2.598305,-9.2893 7.807899,-0.7231 12.529396,4.3877 21.552114,1.5474 7.40248,-1.7395 -6.936113,0.3921 -7.529308,-2.469 -3.5967,-3.9847 -7.0657,-8.2406 -14.240108,-8.5469 -7.421894,-1.4977 -17.277293,-0.4046 -26.413196,5.9787 -44.537392,37.89361 -41.903035,17.7719 -22.095309,46.51091 4.188399,6.0768 11.535806,10.2453 20.042811,12.1764 6.5031,1.4763 19.336697,-7.6506 22.607098,-0.6987 5.033297,1.1999 -2.780993,-8.1729 -6.697901,-7.8579 -5.423797,-1.3685 -21.152796,3.335 -14.526997,-6.9154 7.844998,-5.9637 16.551405,-3.4931 20.261603,0.1689 9.470298,3.0498 10.028593,15.2327 22.636497,14.7507 14.72011,0.5724 26.5434,-7.9217 31.84891,-2.9172 -2.13801,-7.3997 -22.8265,1.1668 -28.29821,-4.048 4.7964,-11.8329 24.9999,3.8636 43.22936,1.5163 -17.82056,-0.027 -14.09524,-18.0853 -41.66105,-12.5149 -6.379005,1.2019 -16.892211,0.5493 -11.483214,-5.8729 9.441704,-4.3204 13.967304,-0.8473 18.904004,2.5636 4.5077,3.1148 14.27771,0.4461 18.5642,4.392 26.80403,13.5468 26.28998,4.172 44.378,-0.1369 -19.90207,5.2897 -16.93273,-4.0982 -26.1903,-1.7648 -10.39826,2.6209 -11.01194,-7.6268 0.71426,-6.9183 17.99511,5.2485 13.83949,13.4659 40.97762,2.0067 3.35949,-1.4915 11.47631,-0.1497 4.99942,-1.3849 -6.78837,-2.2295 -18.46365,2.5031 -24.17322,-2.4095 1.7616,-5.7874 19.15461,-2.6275 23.36013,-1.0543"
         id="path3169"
         sodipodi:nodetypes="ccccccccccccccccccccccssccccccccccsccsccccc"
         inkscape:connector-curvature="0" />
    </g>
  </g>
  <metadata
     id="metadata3092">
    <rdf:RDF>
      <cc:Work>
        <dc:format>image/svg+xml</dc:format>
        <dc:type
           rdf:resource="http://purl.org/dc/dcmitype/StillImage" />
        <cc:license
           rdf:resource="http://creativecommons.org/licenses/publicdomain/" />
        <dc:publisher>
          <cc:Agent
             rdf:about="http://openclipart.org/">
            <dc:title>Open Clip Art Library</dc:title>
          </cc:Agent>
        </dc:publisher>
        <dc:title>flame</dc:title>
        <dc:date>2010-07-22T12:27:18</dc:date>
        <dc:description>Automotive clipart by NetAlloy</dc:description>
        <dc:source>http://openclipart.org/detail/74293/flame-by-netalloy</dc:source>
        <dc:creator>
          <cc:Agent>
            <dc:title>netalloy</dc:title>
          </cc:Agent>
        </dc:creator>
        <dc:subject>
          <rdf:Bag>
            <rdf:li>burn</rdf:li>
            <rdf:li>clip art</rdf:li>
            <rdf:li>clipart</rdf:li>
            <rdf:li>fire</rdf:li>
            <rdf:li>flame</rdf:li>
            <rdf:li>heat</rdf:li>
            <rdf:li>motor sports</rdf:li>
            <rdf:li>sports2010</rdf:li>
            <rdf:li>style</rdf:li>
          </rdf:Bag>
        </dc:subject>
      </cc:Work>
      <cc:License
         rdf:about="http://creativecommons.org/licenses/publicdomain/">
        <cc:permits
           rdf:resource="http://creativecommons.org/ns#Reproduction" />
        <cc:permits
           rdf:resource="http://creativecommons.org/ns#Distribution" />
        <cc:permits
           rdf:resource="http://creativecommons.org/ns#DerivativeWorks" />
      </cc:License>
    </rdf:RDF>
  </metadata>
</svg>
