<?xml version="1.0" encoding="UTF-8" standalone="no"?>
<svg
   xmlns:dc="http://purl.org/dc/elements/1.1/"
   xmlns:cc="http://creativecommons.org/ns#"
   xmlns:rdf="http://www.w3.org/1999/02/22-rdf-syntax-ns#"
   xmlns:svg="http://www.w3.org/2000/svg"
   xmlns="http://www.w3.org/2000/svg"
   xmlns:xlink="http://www.w3.org/1999/xlink"
   xmlns:sodipodi="http://sodipodi.sourceforge.net/DTD/sodipodi-0.dtd"
   xmlns:inkscape="http://www.inkscape.org/namespaces/inkscape"
   width="430.50189"
   height="289.18738"
   id="svg2"
   version="1.1"
   inkscape:version="0.48.4 r9939"
   sodipodi:docname="parachute.svg">
  <sodipodi:namedview
     pagecolor="#ffffff"
     bordercolor="#666666"
     borderopacity="1"
     objecttolerance="10"
     gridtolerance="10"
     guidetolerance="10"
     inkscape:pageopacity="0"
     inkscape:pageshadow="2"
     inkscape:window-width="1440"
     inkscape:window-height="900"
     id="namedview47"
     showgrid="false"
     fit-margin-top="0"
     fit-margin-left="0"
     fit-margin-right="0"
     fit-margin-bottom="0"
     inkscape:zoom="0.40621328"
     inkscape:cx="218.9525"
     inkscape:cy="147.23444"
     inkscape:window-x="0"
     inkscape:window-y="0"
     inkscape:window-maximized="0"
     inkscape:current-layer="svg2" />
  <title
     id="title4">parachute</title>
  <defs
     id="defs6">
    <filter
       height="1.135199"
       y="-0.067598999"
       width="1.630927"
       x="-0.31546399"
       id="filter3720"
       color-interpolation-filters="sRGB">
      <feGaussianBlur
         id="feGaussianBlur3722"
         stdDeviation="0.563329" />
    </filter>
    <clipPath
       id="clipPath3195"
       clipPathUnits="userSpaceOnUse">
      <path
         id="path3197"
         d="m -112.81491,-56.460491 c -117.94925,42.827231 -179.34516,163.863171 -222.85715,288.571411 0,0 -122.85714,-91.42859 -134.2857,-91.42859 -11.42859,0 185.71429,-231.428561 185.71429,-231.428561 l 171.42856,34.285721 0,1.9e-5 z"
         inkscape:connector-curvature="0"
         style="fill:none;stroke:#000000;stroke-width:1px" />
    </clipPath>
    <clipPath
       id="clipPath3203"
       clipPathUnits="userSpaceOnUse">
      <path
         id="path3205"
         d="M -192.81491,-53.603359 C -57.217072,42.160309 -17.47513,163.29294 30.04224,266.39664 L 67.185051,74.968079 -72.814911,-62.174789 l -119.999999,8.57143 z"
         inkscape:connector-curvature="0"
         style="fill:none;stroke:#000000;stroke-width:1px" />
    </clipPath>
    <clipPath
       id="clipPath3225"
       clipPathUnits="userSpaceOnUse">
      <path
         id="path3227"
         d="m -895.67206,60.682339 -8.57141,242.857151 -139.99993,-45.71426 c 43.5568,-107.10556 101.27343,-151.33753 148.57134,-197.142891 z"
         inkscape:connector-curvature="0"
         style="fill:none;stroke:#000000;stroke-width:1px" />
    </clipPath>
    <clipPath
       id="clipPath4957"
       clipPathUnits="userSpaceOnUse">
      <path
         id="path4959"
         d="m 48.485321,442.65027 c 0,0 -16.5986,18.54223 -17.857121,28.57147 -1.316311,10.48962 10.714268,33.57141 10.714268,33.57141 l -25.714269,-7.14288 -0.71429,-40.71423 33.571411,-14.28577 z"
         inkscape:connector-curvature="0"
         style="fill:none;stroke:#000000;stroke-width:1px" />
    </clipPath>
    <clipPath
       id="clipPath4965"
       clipPathUnits="userSpaceOnUse">
      <path
         id="path4967"
         d="M 51.342468,489.07886 C 38.0195,507.88837 35.001831,526.69788 34.91391,545.50745 l -31.42859,-12.85718 21.42859,-45.71423 26.428558,2.14282 z"
         inkscape:connector-curvature="0"
         style="fill:none;stroke:#000000;stroke-width:1px" />
    </clipPath>
    <linearGradient
       id="linearGradient3245">
      <stop
         stop-color="#ffffff"
         id="stop3247"
         offset="0" />
      <stop
         stop-color="#ff0000"
         id="stop3249"
         offset="1" />
    </linearGradient>
    <linearGradient
       id="linearGradient3229">
      <stop
         stop-color="#ffffff"
         id="stop3231"
         offset="0" />
      <stop
         stop-color="#ff00ff"
         id="stop3233"
         offset="1" />
    </linearGradient>
    <radialGradient
       r="189.88702"
       fy="323.81296"
       fx="336.50632"
       cy="323.81296"
       cx="336.50632"
       gradientTransform="matrix(1.04967,1.1069e-7,-8.01638e-8,0.532098,-211.92,-25.8184)"
       gradientUnits="userSpaceOnUse"
       id="radialGradient5196"
       xlink:href="#linearGradient3245" />
    <radialGradient
       r="189.88702"
       fy="323.81296"
       fx="336.50632"
       cy="323.81296"
       cx="336.50632"
       gradientTransform="matrix(0.738531,0,0,0.374051,-108.906,25.7126)"
       gradientUnits="userSpaceOnUse"
       id="radialGradient5198"
       xlink:href="#linearGradient3229" />
    <radialGradient
       r="189.88702"
       fy="323.81296"
       fx="336.50632"
       cy="323.81296"
       cx="336.50632"
       gradientTransform="matrix(0.0880454,0,0,0.0118415,603.64,108.714)"
       gradientUnits="userSpaceOnUse"
       id="svg_1"
       xlink:href="#linearGradient3229" />
  </defs>
  <metadata
     id="metadata7">image/svg+xml<rdf:RDF>
  <cc:Work
     rdf:about="">
    <dc:format>image/svg+xml</dc:format>
    <dc:type
       rdf:resource="http://purl.org/dc/dcmitype/StillImage" />
  </cc:Work>
</rdf:RDF>
</metadata>
  <g
     id="g30"
     transform="matrix(0,-1,1,0,-75.310604,282.31238)">
    <title
       id="title32">Layer 1</title>
    <path
       stroke-miterlimit="4"
       id="path2385"
       d="m 4.61718,213.49268 c -24.56953,-177.84467 298.14393,-183.69669 273.34693,3.1629 -22.51494,-13.14153 -35.05186,-43.23087 -52.76891,-30.8905 -45.17392,31.46475 -76.6017,-22.94294 -83.3663,-12.8579 -14.50443,21.62386 -51.84393,47.37334 -94.67598,13.04688 -16.140299,-12.93515 -19.433189,14.59365 -42.53576,27.53862 l 10e-6,0 1e-5,0 z"
       inkscape:connector-curvature="0"
       style="fill:#000000;fill-rule:nonzero;stroke:#000000;stroke-width:6;stroke-linecap:round;stroke-miterlimit:4;stroke-dashoffset:0" />
    <path
       stroke-miterlimit="4"
       id="path3217"
       d="M 3.77315,212.6692 C -20.796379,34.824551 301.91708,28.972521 277.12003,215.83211 254.60513,202.6906 242.06819,172.60124 224.35114,184.9416 179.17725,216.40637 147.74947,161.99869 140.98483,172.08373 126.48043,193.70757 89.140924,219.45706 46.308881,185.13059 30.16858,172.19544 26.875692,199.72424 3.773121,212.66921 l 2e-5,0 1e-5,0 z"
       clip-path="url(#clipPath3195)"
       inkscape:connector-curvature="0"
       style="opacity:0.51578896;fill:url(#radialGradient5198);fill-rule:nonzero;stroke:#000000;stroke-width:6;stroke-linecap:round;stroke-miterlimit:4;stroke-dashoffset:0" />
    <path
       stroke-miterlimit="4"
       clip-path="url(#clipPath3225)"
       d="M 3.35962,212.58546 C -21.21209,35.542331 301.53039,29.716669 276.73114,215.7341 254.2142,202.65184 241.67613,172.69807 223.9575,184.9828 178.77952,216.30576 147.34889,162.1433 140.58368,172.18286 126.07798,193.70924 88.7351,219.3427 45.89917,185.17094 29.757429,172.2941 26.46431,199.69884 3.35962,212.58546 z"
       id="path3215"
       inkscape:connector-curvature="0"
       style="opacity:0.521053;fill:#00ff00;fill-rule:nonzero;stroke:#000000;stroke-width:6;stroke-linecap:round;stroke-miterlimit:4;stroke-dashoffset:0" />
    <path
       stroke-miterlimit="4"
       id="path2408"
       d="M 277.34955,214.80485 139.22243,502.26114 3.21213,213.02348"
       inkscape:connector-curvature="0"
       style="fill:none;stroke:#000000;stroke-width:3.03921509;stroke-linecap:round;stroke-miterlimit:4;stroke-dashoffset:0" />
    <path
       stroke-miterlimit="4"
       id="path3181"
       d="M 38.360649,183.52573 139.42471,500.69672"
       inkscape:connector-curvature="0"
       style="fill:#00ff00;fill-rule:evenodd;stroke:#000000;stroke-width:2.93367791;stroke-miterlimit:4" />
    <path
       stroke-miterlimit="4"
       id="path3183"
       d="m 144.44745,173.20383 -4.75697,323.81689"
       inkscape:connector-curvature="0"
       style="fill:none;stroke:#000000;stroke-width:3.42159796;stroke-miterlimit:4" />
    <path
       stroke-miterlimit="4"
       id="path3185"
       d="M 234.61671,183.54074 141.77287,496.00977"
       inkscape:connector-curvature="0"
       style="fill:none;stroke:#000000;stroke-width:3;stroke-miterlimit:4" />
    <path
       stroke-miterlimit="4"
       clip-path="url(#clipPath3195)"
       d="M 187.73398,24.586729 C 196.21732,-7.05645 84.791473,-8.09768 93.353302,25.14949 c 7.773908,-2.338211 12.102658,-7.691891 18.219968,-5.49622 15.59754,5.5984 26.44887,-4.082141 28.78453,-2.28776 5.00804,3.847448 17.90056,8.428959 32.68953,2.321388 5.57289,-2.301498 6.70986,2.59659 14.68665,4.89983 z"
       id="path3283"
       inkscape:connector-curvature="0"
       style="opacity:0.51578896;fill:url(#svg_1);fill-rule:nonzero;stroke:#000000;stroke-width:6;stroke-linecap:round;stroke-miterlimit:4;stroke-dashoffset:0" />
    <path
       stroke-miterlimit="4"
       id="path3285"
       d="M 188.3896,24.680981 C 196.87292,-6.96221 85.447068,-8.00343 94.008942,25.24374 c 7.773908,-2.338209 12.102618,-7.691891 18.219928,-5.49622 15.59755,5.5984 26.44889,-4.08215 28.78456,-2.28775 5.00806,3.847441 17.90057,8.428949 32.68951,2.321369 5.57289,-2.301489 6.70986,2.596601 14.68666,4.899841 z"
       clip-path="url(#clipPath3225)"
       inkscape:connector-curvature="0"
       style="opacity:0.521053;fill:#00ff00;fill-rule:nonzero;stroke:#000000;stroke-width:6;stroke-linecap:round;stroke-miterlimit:4;stroke-dashoffset:0" />
    <path
       stroke-miterlimit="4"
       id="path3295"
       d="m 187.15054,24.68096 c 8.48334,-31.64318 -102.94251,-32.68441 -94.380681,0.562759 7.773911,-2.338209 12.102651,-7.691889 18.219961,-5.49622 15.59755,5.598391 26.44887,-4.08215 28.78453,-2.28775 5.00804,3.847441 17.90056,8.428951 32.68953,2.321371 5.57289,-2.301491 6.70987,2.59659 14.68666,4.899839 z"
       clip-path="url(#clipPath3203)"
       inkscape:connector-curvature="0"
       style="opacity:0.63684202;fill:#2539da;fill-rule:nonzero;stroke:#000000;stroke-width:6;stroke-linecap:round;stroke-miterlimit:4;stroke-dashoffset:0" />
    <path
       stroke-miterlimit="4"
       id="path5909"
       d="m 139.30455,461.28784 0.29184,12.82392 -2.91852,-3.52659 2.62668,-9.29733 z"
       inkscape:connector-curvature="0"
       style="fill:#ffccaa;fill-rule:nonzero;stroke-miterlimit:4;filter:url(#filter3720)" />
    <path
       id="path4961"
       d="m 120.06601,530.28992 -7.07818,6.38318 -7.07822,31.065 22.11937,1.70221 11.94446,-25.5329 12.38685,25.95843 21.23457,-1.70221 -3.09669,-31.06494 -50.43216,-6.80877 z"
       clip-path="url(#clipPath4965)"
       inkscape:connector-curvature="0"
       style="fill:#c87137;fill-rule:evenodd;stroke:#000000;stroke-width:1px" />
    <path
       id="path4953"
       d="m 118.73885,493.26727 c 0,0 13.28346,7.29819 21.23458,6.80878 6.99332,-0.43042 20.34983,-7.65985 20.34983,-7.65985 0,0 17.84977,6.35983 19.46501,13.61749 1.8396,8.26563 -8.84773,28.08612 -8.84773,28.08612 -43.99829,3.5589 -36.21644,-0.41479 -59.27987,1.70221 0,0 -10.36889,-18.05475 -8.84775,-26.38394 1.4646,-8.01974 15.92593,-16.17081 15.92593,-16.17081 z"
       clip-path="url(#clipPath4957)"
       inkscape:connector-curvature="0"
       style="fill:#ffccaa;fill-rule:evenodd;stroke:#000000;stroke-width:1px" />
  </g>
</svg>
