<?xml version="1.0" encoding="UTF-8" standalone="no"?>
<!-- Created with Inkscape (http://www.inkscape.org/) -->

<svg
   xmlns:dc="http://purl.org/dc/elements/1.1/"
   xmlns:cc="http://creativecommons.org/ns#"
   xmlns:rdf="http://www.w3.org/1999/02/22-rdf-syntax-ns#"
   xmlns:svg="http://www.w3.org/2000/svg"
   xmlns="http://www.w3.org/2000/svg"
   xmlns:xlink="http://www.w3.org/1999/xlink"
   xmlns:sodipodi="http://sodipodi.sourceforge.net/DTD/sodipodi-0.dtd"
   xmlns:inkscape="http://www.inkscape.org/namespaces/inkscape"
   height="82.417114"
   id="svg2"
   inkscape:export-filename="/home/nicu/Desktop/rpg_color.png"
   inkscape:export-xdpi="90.000000"
   inkscape:export-ydpi="90.000000"
   inkscape:version="0.48.3.1 r9886"
   sodipodi:docname="tree.svg"
   sodipodi:version="0.32"
   width="60.455597"
   version="1.1">
  <metadata
     id="metadata3587">
    <rdf:RDF>
      <cc:Work
         rdf:about="">
        <dc:title>tree - RPG map elements</dc:title>
        <dc:description />
        <dc:subject>
          <rdf:Bag>
            <rdf:li>mapsym</rdf:li>
          </rdf:Bag>
        </dc:subject>
        <dc:publisher>
          <cc:Agent
             rdf:about="http://www.openclipart.org/">
            <dc:title>Open Clip Art Library</dc:title>
          </cc:Agent>
        </dc:publisher>
        <dc:creator>
          <cc:Agent>
            <dc:title>Nicu Buculei</dc:title>
          </cc:Agent>
        </dc:creator>
        <dc:rights>
          <cc:Agent>
            <dc:title>Nicu Buculei</dc:title>
          </cc:Agent>
        </dc:rights>
        <dc:date />
        <dc:format>image/svg+xml</dc:format>
        <dc:type
           rdf:resource="http://purl.org/dc/dcmitype/StillImage" />
        <cc:license
           rdf:resource="http://web.resource.org/cc/PublicDomain" />
        <dc:language>en</dc:language>
      </cc:Work>
      <cc:License
         rdf:about="http://web.resource.org/cc/PublicDomain">
        <cc:permits
           rdf:resource="http://web.resource.org/cc/Reproduction" />
        <cc:permits
           rdf:resource="http://web.resource.org/cc/Distribution" />
        <cc:permits
           rdf:resource="http://web.resource.org/cc/DerivativeWorks" />
      </cc:License>
    </rdf:RDF>
  </metadata>
  <defs
     id="defs3">
    <linearGradient
       id="linearGradient2057"
       inkscape:collect="always">
      <stop
         id="stop2059"
         offset="0"
         style="stop-color:#000000;stop-opacity:1;" />
      <stop
         id="stop2061"
         offset="1"
         style="stop-color:#000000;stop-opacity:0;" />
    </linearGradient>
    <radialGradient
       cx="14.207293"
       cy="222.04396"
       fx="14.207293"
       fy="222.04396"
       gradientTransform="scale(1.39523,0.716728)"
       gradientUnits="userSpaceOnUse"
       id="radialGradient2063"
       inkscape:collect="always"
       r="8.2519293"
       xlink:href="#linearGradient2057" />
  </defs>
  <sodipodi:namedview
     bordercolor="#666666"
     borderopacity="1.0"
     id="base"
     inkscape:current-layer="layer1"
     inkscape:cx="-32.81268"
     inkscape:cy="-69.753989"
     inkscape:document-units="px"
     inkscape:pageopacity="0.0"
     inkscape:pageshadow="2"
     inkscape:window-height="875"
     inkscape:window-width="1440"
     inkscape:window-x="0"
     inkscape:window-y="25"
     inkscape:zoom="1"
     pagecolor="#ffffff"
     showgrid="false"
     inkscape:snap-global="false"
     fit-margin-top="0"
     fit-margin-left="0"
     fit-margin-right="0"
     fit-margin-bottom="0"
     inkscape:window-maximized="0" />
  <g
     id="layer1"
     inkscape:groupmode="layer"
     inkscape:label="Layer 1"
     transform="translate(-29.579475,-24.665554)">
    <g
       id="g1869"
       transform="matrix(2.469674,0,0,2.469674,19.5242,-294.6608)">
      <path
         d="m 28.401713,158.69876 c 0,2.25371 -3.556549,4.08071 -7.943774,4.08071 -4.387225,0 -7.943774,-1.827 -7.943774,-4.08071 0,-2.25371 3.556549,-4.0807 7.943774,-4.0807 4.387225,0 7.943774,1.82699 7.943774,4.0807 z"
         id="path2055"
         sodipodi:cx="20.457939"
         sodipodi:cy="158.69876"
         sodipodi:rx="7.9437737"
         sodipodi:ry="4.0807056"
         sodipodi:type="arc"
         style="fill:url(#radialGradient2063);fill-opacity:1;fill-rule:evenodd;stroke:none"
         transform="translate(-2.285195,-0.108819)" />
      <path
         d="m 12.72731,129.72199 c 0.506446,0.84619 0.854346,0.9378 2.143547,0.9378 0.0997,0 1.666064,-0.68446 2.143547,-0.80383 1.014873,-0.25372 2.118699,-0.21959 2.947377,0.40192 0.730598,0.54795 1.59914,1.19722 2.277518,1.8756 0.618079,0.61808 1.360277,1.12069 2.009576,1.60766 0.726147,0.54461 1.423906,1.06793 2.143547,1.60766 0.460754,0.34557 0.714055,0.86276 1.071773,1.33972 0.317267,0.42302 0,1.36249 0,2.00957 0,0.87743 0.434181,1.6722 0.80383,2.41149 0.471852,0.94371 -0.407622,1.85803 -1.071773,2.41149 -0.672721,0.56061 -1.676903,0.64397 -2.411491,0.93781 -0.569878,0.22795 -1.252884,1.38685 -1.60766,1.74163 -0.75648,0.75648 -0.04926,1.37025 -1.473688,1.60766 -0.78614,0.13102 -1.532604,0.3869 -2.277519,0.53589 -0.933902,0.18678 -1.765773,-0.207 -2.545462,-0.40192 -0.810528,-0.20263 -1.291508,-0.3537 -1.741632,-0.80383 -2.463135,-1.39136 -2.236427,-1.79429 -3.422089,-1.4272 -0.987584,0.39503 -1.523796,-0.0533 -2.3304858,-0.45661 -1.0427674,-0.52138 -2.012034,-0.52193 -2.8216127,-1.33151 -0.8250046,-0.82501 -1.2260458,-0.61805 -1.7334245,-1.63281 -0.3046188,-0.60924 0.1367005,-1.64373 0.2679433,-2.1687 0.2347,-0.9388 0.4933909,-1.40604 1.1220792,-2.03473 0.4262443,-0.42624 0.9914289,-0.97448 1.4151754,-1.39823 0.6755632,-0.67556 -0.3842227,-1.71256 0.8038301,-2.00958 0.7412697,-0.18531 1.4343829,-0.72522 1.741632,-1.33971 0.459336,-0.91868 0.518066,-1.80719 1.071773,-2.54547 0.307567,-0.41008 1.080682,-0.75736 1.473689,-1.07177 z"
         id="path1294"
         sodipodi:nodetypes="cccccccccccccccccccccccccccc"
         style="fill:#00b300;fill-opacity:1;fill-rule:evenodd;stroke:none"
         inkscape:connector-curvature="0" />
      <path
         d="m 18.619902,129.29899 c -1.14265,0 -4.00058,0.55906 -4.40625,0.875 -0.50929,0.39666 -0.39253,0.84457 0.15625,0.625 1.38344,-0.55351 3.57012,-0.98745 4.34375,-0.84375 0.56828,0.10557 1.05064,0.4413 1.34375,0.9375 0.28971,0.49043 0.9228,0.92129 1.75,1.21875 0.79585,0.28618 1.38716,0.70893 1.5625,1.09375 0.15678,0.34409 0.76637,0.85121 1.34375,1.125 2.01293,0.9545 2.96357,2.43969 2.3125,3.65625 -0.17144,0.32035 -0.16108,0.71695 0.0625,1.15625 0.18502,0.36349 0.49501,1.19099 0.6875,1.84375 0.30973,1.05021 0.29321,1.25663 -0.125,1.71875 -0.70967,0.78419 -1.92595,1.32407 -2.25,1 -0.33765,-0.33765 -0.87499,-0.0596 -0.875,0.46875 10e-6,0.21647 -0.10151,0.40625 -0.25,0.40625 -0.57031,0 -1.37501,0.96123 -1.375,1.65625 10e-6,1.1934 -0.98267,1.61742 -3.9375,1.6875 -2.11742,0.0502 -2.66008,-0.0138 -3.09375,-0.40625 -0.28939,-0.26191 -0.66273,-0.46875 -0.8125,-0.46875 -0.14975,0 -0.52826,-0.31842 -0.875,-0.6875 -0.58822,-0.62614 -3.17819,-1.442 -4.0625,-1.28125 -0.1898402,0.0345 -0.5906499,-0.12268 -0.9062499,-0.34375 -0.31559,-0.22106 -0.77729,-0.30421 -1,-0.21875 -0.24519,0.0941 -0.6487,-0.17755 -1.03125,-0.65625 -0.76155,-0.95295 -1.14857,-0.70599 -0.65625,0.40625 0.44128,0.9969 1.2594,1.53747 1.71875,1.15625 0.20589,-0.17086 0.46825,-0.15844 0.71875,0 0.27213,0.1721 0.29445,0.24715 0.0625,0.25 -0.18776,0.002 -0.34374,0.12142 -0.34375,0.28125 1e-5,0.15983 0.33688,0.28226 0.75,0.25 1.3012699,-0.10163 2.2812499,0.0209 2.2812499,0.28125 10e-6,0.13815 -0.57402,0.20183 -1.25,0.15625 -0.7987899,-0.0539 -1.2187399,0.0126 -1.2187499,0.21875 1e-5,0.38078 1.0841099,1.35931 1.5937499,1.4375 0.97849,0.15011 2.26226,1.02878 2.65625,1.8125 0.24195,0.4813 0.95223,1.39847 1.5625,2.03125 l 1.09375,1.15625 -0.84375,2.21875 c -0.47637,1.21703 -0.87501,2.45446 -0.875,2.75 10e-6,0.29554 -0.18092,0.60103 -0.40625,0.6875 -0.22533,0.0865 -0.40625,0.23883 -0.40625,0.34375 10e-6,0.10491 1.29789,0.19583 2.875,0.1875 1.5771,-0.008 2.84352,-0.10609 2.84375,-0.21875 2.3e-4,-0.11267 0.34812,-0.21875 0.78125,-0.21875 0.5554,0 0.8377,-0.14955 0.9375,-0.53125 0.13317,-0.50917 -0.46646,-2.05025 -1.125,-2.84375 -0.43646,-0.52591 -0.4644,-2.54061 -0.03125,-3.0625 0.58119,-0.70028 3.44715,-2.5625 3.9375,-2.5625 0.56753,0 1.17882,-1.44317 1.34375,-3.21875 0.11172,-1.20256 1,-3.25631 1,-2.3125 10e-6,0.65154 0.69826,0.30444 1.59375,-0.8125 0.99552,-1.24169 1.02507,-2.05003 0.125,-3.9375 -0.35932,-0.75353 -0.40793,-1.08619 -0.15625,-1.90625 0.19726,-0.64269 0.22581,-1.19487 0.0625,-1.5 -0.36147,-0.67544 -2.73392,-2.71874 -3.15625,-2.71875 -0.19394,0 -0.57826,-0.3369 -0.875,-0.75 -0.29673,-0.41311 -1.0165,-0.98643 -1.59375,-1.28125 -0.57725,-0.29482 -1.43533,-0.94366 -1.90625,-1.4375 -0.58976,-0.61846 -1.10159,-0.875 -1.65625,-0.875 z m -5.53125,0.28125 c -0.48025,-0.30897 -1.5325,0.18734 -2.4375,1.15625 -0.52079,0.5576 -0.58584,0.79766 -0.34375,1.25 0.48997,0.91549 0.36081,1.09251 -1.3749999,1.96875 -1.63144,0.82355 -1.63727,0.85169 -1.46875,1.75 0.14231,0.75853 0.06976,0.95258 -0.375,1.09375 -0.70568,0.22397 -2.20767,1.93347 -2.21875,2.53125 -0.00477,0.25766 -0.1857,0.70839 -0.40625,1 -0.51415,0.67978 -0.53152,1.24115 0,2 0.43203,0.61679 1.21875,0.84167 1.21875,0.34375 10e-6,-0.15023 -0.1672,-0.28125 -0.375,-0.28125 -1.5836,0 0.61844,-4.83254 2.40625,-5.28125 0.61436,-0.15419 0.64134,-0.236 0.375,-1 -0.15948,-0.4575 -0.22555,-0.89945 -0.15625,-0.96875 0.06931,-0.0693 0.78193,-0.46374 1.59375,-0.875 1.4245699,-0.72163 1.5031599,-0.77487 1.4687499,-1.8125 -0.03456,-1.04197 0.60656,-2.02517 1.375,-2.0625 0.15023,-0.007 0.46216,-0.13333 0.6875,-0.28125 0.35466,-0.23281 0.3719,-0.31207 0.03125,-0.53125 z m 10.75,16 c 0.30782,-0.11812 0.35616,0.0792 0.25,0.875 -0.27547,2.06529 -0.34657,2.18077 -2.34375,3.5 -1.08913,0.71942 -2.09977,1.45984 -2.25,1.65625 -0.19447,0.25426 -0.2789,0.0354 -0.25,-0.75 0.0313,-0.85033 -0.07764,-1.18021 -0.5,-1.40625 -0.80237,-0.42942 -0.30589,-0.67435 1.84375,-1 2.05638,-0.31151 2.84374,-0.91055 2.84375,-2.09375 10e-6,-0.34284 0.19181,-0.69897 0.40625,-0.78125 z m -11.3125,0.375 c 0.20461,0 0.67874,0.29455 1.0625,0.65625 0.38378,0.36171 1.13049,0.89065 1.65625,1.1875 0.52578,0.29686 0.942,0.68151 0.90625,0.84375 -0.03575,0.16224 0.06401,0.22687 0.25,0.15625 0.2352,-0.0893 0.38403,0.29895 0.4375,1.25 0.0423,0.75201 0.0423,1.35561 0,1.34375 -1.3354,-0.37448 -2.13401,-0.8804 -2.3125,-1.46875 -0.26333,-0.86805 -1.82584,-2.86544 -2.25,-2.875 -0.28248,-0.006 -0.29174,-0.0988 -0.0625,-0.375 0.16732,-0.2016 0.22383,-0.46364 0.125,-0.5625 -0.09884,-0.0988 -0.0171,-0.15625 0.1875,-0.15625 z"
         id="path1679"
         style="fill:#5c2700;fill-opacity:1"
         inkscape:connector-curvature="0" />
    </g>
  </g>
</svg>
